# File created by Blade
# Date/Time:  Fri Jan 16 17:18:57 2015
#---------------------------------------------------------
:version 1.10
:name HOM
:units
  mass 1.0
  length 1.000000
  angle deg
:documentation
     Acclaim Skeleton File
:root
   axis xyz
   order TX TY TZ RX RY RZ
   position 0.000000 0.000000 0.000000
   orientation 0 0 0
:bonedata
   begin
      id 1
      name Spine_dum
      direction 0.000000 1.000000 0.000000
      length 7.170412
      axis 0.0 0.0 0.0 xyz
   end
   begin
      id 2
      name LeftUpLeg_dum
      direction 1.000000 0.000000 0.000000
      length 4.318350
      axis 0.0 0.0 0.0 xyz
   end
   begin
      id 3
      name RightUpLeg_dum
      direction -1.000000 0.000000 0.000000
      length 4.318350
      axis 0.0 0.0 0.0 xyz
   end
   begin
      id 4
      name Spine
      direction 0.000000 1.000000 0.000000
      length 0.000000
      axis 0.0 0.0 0.0 xyz
      dof rx ry rz
   end
   begin
      id 5
      name Spine_dum1
      direction 0.000000 1.000000 0.000000
      length 14.276153
      axis 0.0 0.0 0.0 xyz
   end
   begin
      id 6
      name Spine_dum2
      direction 0.000000 1.000000 0.000000
      length 10.718243
      axis 0.0 0.0 0.0 xyz
   end
   begin
      id 7
      name Spine_dum3
      direction 0.000000 1.000000 0.000000
      length 10.718243
      axis 0.0 0.0 0.0 xyz
   end
   begin
      id 8
      name Head
      direction 0.000000 1.000000 0.000000
      length 4.527550
      axis 0.0 0.0 0.0 xyz
      dof rx ry rz
   end
   begin
      id 9
      name LeftShoulder
      direction 1.000000 0.000000 0.000000
      length 7.058872
      axis 0.0 0.0 -90.0 xyz
      dof rx ry rz
   end
   begin
      id 10
      name LeftArm
      direction 1.000000 0.000000 0.000000
      length 10.955525
      axis 0.0 0.0 -90.0 xyz
      dof rx ry rz
   end
   begin
      id 11
      name LeftForeArm
      direction 1.000000 0.000000 0.000000
      length 8.193716
      axis 0.0 0.0 -90.0 xyz
      dof ry rz rx
   end
   begin
      id 12
      name LeftHand
      direction 0.000000 0.000000 0.000000
      length 0.000000
      axis 0.0 0.0 -90.0 xyz
      dof rx ry rz
   end
   begin
      id 13
      name LeftHand_dum1
      direction 0.000000 0.000000 0.000000
      length 0.000000
      axis 0.0 0.0 -90.0 xyz
   end
   begin
      id 14
      name LeftHand_dum2
      direction 1.000000 0.000000 0.000000
      length 3.937000
      axis 0.0 0.0 -90.0 xyz
   end
   begin
      id 15
      name LeftHandThumb1
      direction 0.000000 0.000000 1.000000
      length 3.937000
      axis 0.0 0.0 -90.0 xyz
      dof rx rz ry
   end
   begin
      id 16
      name RightShoulder
      direction -1.000000 0.000000 0.000000
      length 7.058872
      axis 0.0 0.0 90.0 xyz
      dof rx ry rz
   end
   begin
      id 17
      name RightArm
      direction -1.000000 0.000000 0.000000
      length 10.955525
      axis 0.0 0.0 90.0 xyz
      dof rx ry rz
   end
   begin
      id 18
      name RightForeArm
      direction -1.000000 0.000000 0.000000
      length 8.193716
      axis 0.0 0.0 90.0 xyz
      dof ry rz rx
   end
   begin
      id 19
      name RightHand
      direction 0.000000 0.000000 0.000000
      length 0.000000
      axis 0.0 0.0 90.0 xyz
      dof rx ry rz
   end
   begin
      id 20
      name RightHand_dum1
      direction 0.000000 0.000000 0.000000
      length 0.000000
      axis 0.0 0.0 90.0 xyz
   end
   begin
      id 21
      name RightHand_dum2
      direction -1.000000 0.000000 0.000000
      length 3.937000
      axis 0.0 0.0 90.0 xyz
   end
   begin
      id 22
      name RightHandThumb1
      direction 0.000000 0.000000 1.000000
      length 3.937000
      axis 0.0 0.0 90.0 xyz
      dof rx rz ry
   end
   begin
      id 23
      name LeftUpLeg
      direction 0.000000 -1.000000 0.000000
      length 17.323638
      axis 0.0 0.0 0.0 xyz
      dof rx ry rz
   end
   begin
      id 24
      name LeftLeg
      direction 0.000000 -1.000000 0.000000
      length 16.270368
      axis 0.0 0.0 0.0 xyz
      dof rx ry rz
   end
   begin
      id 25
      name LeftFoot
      direction 0.000000 -0.258819 0.965926
      length 4.922846
      axis 15.0 0.0 0.0 xyz
      dof rx ry rz
   end
   begin
      id 26
      name LeftToeBase
      direction 0.000000 0.000000 1.000000
      length 2.952750
      axis 0.0 0.0 0.0 xyz
      dof rx ry rz
   end
   begin
      id 27
      name RightUpLeg
      direction 0.000000 -1.000000 0.000000
      length 17.323638
      axis 0.0 0.0 0.0 xyz
      dof rx ry rz
   end
   begin
      id 28
      name RightLeg
      direction 0.000000 -1.000000 0.000000
      length 16.270368
      axis 0.0 0.0 0.0 xyz
      dof rx ry rz
   end
   begin
      id 29
      name RightFoot
      direction 0.000000 -0.258819 0.965926
      length 4.922846
      axis 15.0 0.0 0.0 xyz
      dof rx ry rz
   end
   begin
      id 30
      name RightToeBase
      direction 0.000000 0.000000 1.000000
      length 2.952750
      axis 0.0 0.0 0.0 xyz
      dof rx ry rz
   end
:hierarchy
   begin
      root Spine_dum LeftUpLeg_dum RightUpLeg_dum
      Spine_dum Spine
      LeftUpLeg_dum LeftUpLeg
      RightUpLeg_dum RightUpLeg
      Spine Spine_dum1 Spine_dum2 Spine_dum3
      Spine_dum1 Head
      Spine_dum2 LeftShoulder
      Spine_dum3 RightShoulder
      LeftShoulder LeftArm
      LeftArm LeftForeArm
      LeftForeArm LeftHand
      LeftHand LeftHand_dum1 LeftHand_dum2
      LeftHand_dum1 LeftHandThumb1
      RightShoulder RightArm
      RightArm RightForeArm
      RightForeArm RightHand
      RightHand RightHand_dum1 RightHand_dum2
      RightHand_dum1 RightHandThumb1
      LeftUpLeg LeftLeg
      LeftLeg LeftFoot
      LeftFoot LeftToeBase
      RightUpLeg RightLeg
      RightLeg RightFoot
      RightFoot RightToeBase
   end

# File created by Blade
# Date/Time:  Fri Jan 16 17:19:08 2015
# Frame Rate: 120.000 fps
#------------------------------------------------------
:FULLY-SPECIFIED
:DEGREES
2857
root -5.341414 35.149668 -8.838928 1.087549 -5.024607 -6.472062
Spine -7.229276 -5.923822 8.239096
Head 10.119591 -5.997285 -5.375258
LeftShoulder -21.244440 13.087075 -13.879096
LeftArm 16.674365 -11.864791 -75.278663
LeftForeArm 15.355792 -0.000000 10.073067
LeftHand 0.215718 -0.000000 -4.932536
LeftHandThumb1 -26.253704 0.000000 33.147579
RightShoulder -15.289811 8.713985 -12.179005
RightArm -86.556116 76.143260 -34.057414
RightForeArm 54.895660 -0.000000 129.423821
RightHand 20.883844 -0.000000 -5.630451
RightHandThumb1 -24.326973 -0.000000 -32.862282
LeftUpLeg 11.042194 13.676026 7.078083
LeftLeg -9.680435 -0.000000 0.000000
LeftFoot -17.037313 28.557861 -8.493876
LeftToeBase 22.736670 -0.000000 -0.000000
RightUpLeg 7.519636 -4.189207 4.610998
RightLeg -4.803619 -0.000000 0.000000
RightFoot -5.779844 -28.373605 5.189282
RightToeBase 13.390659 -0.000000 -0.000000
2858
root -5.345665 35.150109 -8.842154 1.083749 -5.014053 -6.476591
Spine -7.207832 -5.897060 8.196723
Head 10.112276 -6.009125 -5.334375
LeftShoulder -21.260440 13.069034 -13.891139
LeftArm 16.643944 -11.887495 -75.266616
LeftForeArm 15.353128 0.000000 10.081182
LeftHand 0.111280 0.000000 -5.087611
LeftHandThumb1 -26.253704 0.000000 33.147579
RightShoulder -15.392833 8.816803 -12.415650
RightArm -87.108513 76.263476 -34.701222
RightForeArm 55.082130 -0.000000 131.182128
RightHand 21.453979 -0.000000 -4.828040
RightHandThumb1 -24.326973 -0.000000 -32.862282
LeftUpLeg 11.042824 13.678791 7.090567
LeftLeg -9.689116 -0.000000 0.000000
LeftFoot -17.012184 28.543759 -8.478300
LeftToeBase 22.720470 -0.000000 -0.000000
RightUpLeg 7.523425 -4.201282 4.621830
RightLeg -4.811400 -0.000000 0.000000
RightFoot -5.762731 -28.369496 5.174774
RightToeBase 13.371186 -0.000000 -0.000000
2859
root -5.349585 35.150605 -8.846939 1.094659 -5.010781 -6.475789
Spine -7.200283 -5.873146 8.147462
Head 10.088994 -6.015666 -5.315795
LeftShoulder -21.296756 13.045683 -13.901643
LeftArm 16.604387 -11.988070 -75.288846
LeftForeArm 15.402665 0.000000 10.122212
LeftHand 0.136702 -0.000000 -5.010728
LeftHandThumb1 -26.253704 0.000000 33.147579
RightShoulder -15.477140 8.872638 -12.577061
RightArm -87.609052 76.391113 -35.385589
RightForeArm 55.233942 -0.000000 132.966117
RightHand 21.871647 -0.000000 -4.284913
RightHandThumb1 -24.326973 -0.000000 -32.862282
LeftUpLeg 11.026369 13.690236 7.094919
LeftLeg -9.695179 -0.000000 0.000000
LeftFoot -16.992261 28.531304 -8.467496
LeftToeBase 22.719250 -0.000000 -0.000000
RightUpLeg 7.504959 -4.229014 4.628879
RightLeg -4.812482 -0.000000 0.000000
RightFoot -5.760887 -28.359059 5.170114
RightToeBase 13.352034 -0.000000 -0.000000
2860
root -5.349894 35.151542 -8.853410 1.125878 -5.028680 -6.475987
Spine -7.212169 -5.826223 8.122957
Head 10.067652 -6.022457 -5.328111
LeftShoulder -21.344246 13.019553 -13.935394
LeftArm 16.582044 -12.038994 -75.293487
LeftForeArm 15.455939 0.000000 10.123148
LeftHand 0.162221 -0.000000 -4.946746
LeftHandThumb1 -26.253704 0.000000 33.147579
RightShoulder -15.555946 8.859392 -12.752944
RightArm -88.563417 76.595738 -36.450842
RightForeArm 55.231430 -0.000000 134.742416
RightHand 22.234115 -0.000000 -3.953262
RightHandThumb1 -24.326973 -0.000000 -32.862282
LeftUpLeg 10.987730 13.683559 7.083263
LeftLeg -9.695251 -0.000000 0.000000
LeftFoot -16.983671 28.560525 -8.467349
LeftToeBase 22.743761 -0.000000 -0.000000
RightUpLeg 7.455457 -4.209661 4.631647
RightLeg -4.796782 -0.000000 0.000000
RightFoot -5.750699 -28.351313 5.154325
RightToeBase 13.375055 -0.000000 -0.000000
2861
root -5.357009 35.151719 -8.855253 1.107725 -5.019909 -6.481694
Spine -7.176658 -5.791436 8.060846
Head 10.061400 -6.060232 -5.285007
LeftShoulder -21.356257 13.024696 -13.927110
LeftArm 16.573119 -12.048241 -75.291554
LeftForeArm 15.481130 -0.000000 10.124044
LeftHand 0.147335 -0.000000 -4.927343
LeftHandThumb1 -26.253704 0.000000 33.147579
RightShoulder -15.650994 8.847103 -12.912603
RightArm -89.375584 76.774681 -37.342114
RightForeArm 55.169678 -0.000000 136.482639
RightHand 22.853775 0.000000 -3.454689
RightHandThumb1 -24.326973 -0.000000 -32.862282
LeftUpLeg 11.013800 13.708485 7.108963
LeftLeg -9.716894 -0.000000 0.000000
LeftFoot -16.958030 28.524868 -8.453136
LeftToeBase 22.719184 -0.000000 -0.000000
RightUpLeg 7.481327 -4.227977 4.648438
RightLeg -4.815688 -0.000000 0.000000
RightFoot -5.742767 -28.349411 5.164074
RightToeBase 13.353222 -0.000000 -0.000000
2862
root -5.358379 35.152894 -8.861310 1.131216 -5.032837 -6.484174
Spine -7.174976 -5.753823 8.023457
Head 10.036471 -6.076241 -5.270746
LeftShoulder -21.395054 13.007673 -13.944842
LeftArm 16.550744 -12.061139 -75.290847
LeftForeArm 15.589637 0.000000 10.110131
LeftHand 0.059252 -0.000000 -5.084045
LeftHandThumb1 -26.253704 0.000000 33.147579
RightShoulder -15.742072 8.784497 -13.055521
RightArm -90.261886 77.020695 -38.302809
RightForeArm 55.348315 0.000000 138.136841
RightHand 23.479200 -0.000000 -2.907939
RightHandThumb1 -24.326973 -0.000000 -32.862282
LeftUpLeg 10.985227 13.719987 7.105226
LeftLeg -9.723746 -0.000000 0.000000
LeftFoot -16.943582 28.536249 -8.463304
LeftToeBase 22.704569 -0.000000 -0.000000
RightUpLeg 7.435815 -4.255481 4.653129
RightLeg -4.794037 -0.000000 0.000000
RightFoot -5.736384 -28.317412 5.157803
RightToeBase 13.352189 -0.000000 -0.000000
2863
root -5.361035 35.153354 -8.866257 1.149339 -5.035733 -6.486563
Spine -7.165623 -5.727479 7.978291
Head 9.999892 -6.097743 -5.244378
LeftShoulder -21.455457 12.996417 -13.957955
LeftArm 16.551210 -12.059185 -75.291941
LeftForeArm 15.613061 -0.000000 10.086000
LeftHand 0.175059 -0.000000 -4.883175
LeftHandThumb1 -26.253704 0.000000 33.147579
RightShoulder -15.863254 8.943883 -13.289890
RightArm -90.502563 77.059203 -38.568626
RightForeArm 55.465955 -0.000000 139.789084
RightHand 24.027115 -0.000000 -2.334239
RightHandThumb1 -24.326973 -0.000000 -32.862282
LeftUpLeg 10.957135 13.707818 7.105455
LeftLeg -9.721728 -0.000000 0.000000
LeftFoot -16.928441 28.556804 -8.447501
LeftToeBase 22.689026 -0.000000 -0.000000
RightUpLeg 7.408089 -4.269392 4.659241
RightLeg -4.789086 -0.000000 0.000000
RightFoot -5.725075 -28.295673 5.132578
RightToeBase 13.330103 -0.000000 -0.000000
